<svg width="24" height="24" viewBox="0 0 24 24" fill="none" xmlns="http://www.w3.org/2000/svg">
<path d="M15.375 12C15.375 13.864 13.864 15.375 12 15.375C10.136 15.375 8.625 13.864 8.625 12C8.625 10.136 10.136 8.625 12 8.625C13.864 8.625 15.375 10.136 15.375 12ZM15.375 12V8.625M15.375 12V12.5625C15.375 14.1158 16.6342 15.375 18.1875 15.375C19.7408 15.375 21 14.1158 21 12.5625V12C21 7.02944 16.9706 3 12 3C7.02944 3 3 7.02944 3 12C3 16.9706 7.02944 21 12 21C13.582 21 15.0687 20.5918 16.3605 19.875" stroke="#232323" stroke-miterlimit="10" stroke-linejoin="round"/>
</svg>
