<svg width="24" height="25" viewBox="0 0 24 25" fill="none" xmlns="http://www.w3.org/2000/svg">
<path d="M16 3.5H8C5.23858 3.5 3 5.73858 3 8.5V16.5C3 19.2614 5.23858 21.5 8 21.5H16C18.7614 21.5 21 19.2614 21 16.5V8.5C21 5.73858 18.7614 3.5 16 3.5Z" stroke="#232323" stroke-miterlimit="10" stroke-linejoin="round"/>
<path d="M12 17.5C14.7614 17.5 17 15.2614 17 12.5C17 9.73858 14.7614 7.5 12 7.5C9.23858 7.5 7 9.73858 7 12.5C7 15.2614 9.23858 17.5 12 17.5Z" stroke="#232323" stroke-miterlimit="10" stroke-linejoin="round"/>
<path d="M6 0.5H9" stroke="#232323" stroke-miterlimit="10" stroke-linejoin="round"/>
</svg>
