<svg width="24" height="24" viewBox="0 0 24 24" fill="none" xmlns="http://www.w3.org/2000/svg">
<path d="M13.0001 11.5C13.0001 11.7762 12.7762 12 12.5001 12C12.2239 12 12.0001 11.7762 12.0001 11.5C12.0001 11.2238 12.2239 11 12.5001 11C12.7762 11 13.0001 11.2238 13.0001 11.5ZM15 11.5C15 11.7762 14.7762 12 14.5 12C14.2239 12 14 11.7762 14 11.5C14 11.2238 14.2239 11 14.5 11C14.7762 11 15 11.2238 15 11.5ZM11 11.5C11 11.7762 10.7761 12 10.5 12C10.2238 12 10 11.7762 10 11.5C10 11.2238 10.2238 11 10.5 11C10.7761 11 11 11.2238 11 11.5Z" fill="#232323"/>
<path d="M12.5002 20C10.9043 20 9.3484 19.5548 8.00101 18.712C7.807 18.5908 7.56649 18.558 7.34237 18.6301L4.43261 19.567L5.3695 16.6572C5.44039 16.4365 5.41066 16.1956 5.28755 15.9985C4.44519 14.6511 4 13.0956 4 11.4992C4.00038 6.81318 7.81348 3 12.5002 3C17.1869 3 21 6.81318 21 11.5C21 16.1868 17.1869 20 12.5002 20Z" stroke="#232323" stroke-miterlimit="10" stroke-linejoin="round"/>
</svg>
