<svg width="24" height="24" viewBox="0 0 24 24" fill="none" xmlns="http://www.w3.org/2000/svg">
<path d="M8.79667 11.5333C11.1531 11.5333 13.0633 9.62308 13.0633 7.26667C13.0633 4.91025 11.1531 3 8.79667 3C6.44025 3 4.53 4.91025 4.53 7.26667C4.53 9.62308 6.44025 11.5333 8.79667 11.5333ZM8.79667 11.5333C4.67294 11.5333 1.33 14.8763 1.33 19M8.79667 11.5333C12.9204 11.5333 16.2633 14.8763 16.2633 19M15.1967 3C17.5531 3 19.4633 4.91025 19.4633 7.26667C19.4633 8.90932 18.5336 10.4439 17.33 11C20.4152 11.9592 22.6633 15.5317 22.6633 19" stroke="#232323" stroke-miterlimit="10" stroke-linejoin="round"/>
</svg>
