<svg width="24" height="24" viewBox="0 0 24 24" fill="none" xmlns="http://www.w3.org/2000/svg">
<path d="M18.5504 16.3619C19.4653 16.3619 20.3427 15.9985 20.9896 15.3516C21.6366 14.7046 22 13.8272 22 12.9124C22 11.9975 21.6366 11.1201 20.9896 10.4732C20.3427 9.82624 19.4653 9.4628 18.5504 9.4628H17.5649C17.7087 8.82213 17.7109 8.16223 17.5713 7.5208C17.4317 6.87936 17.1532 6.26895 16.7515 5.7244C16.3498 5.17985 15.8329 4.71184 15.2303 4.34709C14.6276 3.98234 13.9511 3.72799 13.2392 3.59856C12.5274 3.46913 11.7941 3.46716 11.0814 3.59276C10.3687 3.71835 9.69049 3.96906 9.08544 4.33057C7.86349 5.06066 7.01384 6.19773 6.7234 7.49163C5.67271 7.44954 4.63941 7.75813 3.80041 8.36456C2.96141 8.97099 2.3689 9.83754 2.12432 10.8158C1.87975 11.7941 1.99832 12.8233 2.45975 13.7272C2.92117 14.6311 3.69674 15.3534 4.65366 15.7706M11.6513 11.434V20.3043M11.6513 20.3043L8.69457 17.3475M11.6513 20.3043L14.6081 17.3475" stroke="#232323" stroke-miterlimit="10" stroke-linejoin="round"/>
</svg>
