<svg width="24" height="24" viewBox="0 0 24 24" fill="none" xmlns="http://www.w3.org/2000/svg">
<path d="M12.9995 11.5C12.9995 11.7762 12.7757 12 12.4996 12C12.2234 12 11.9996 11.7762 11.9996 11.5C11.9996 11.2238 12.2234 11 12.4996 11C12.7757 11 12.9995 11.2238 12.9995 11.5ZM14.9995 11.5C14.9995 11.7762 14.7756 12 14.4995 12C14.2233 12 13.9995 11.7762 13.9995 11.5C13.9995 11.2238 14.2233 11 14.4995 11C14.7756 11 14.9995 11.2238 14.9995 11.5ZM10.9994 11.5C10.9994 11.7762 10.7756 12 10.4995 12C10.2233 12 9.99947 11.7762 9.99947 11.5C9.99947 11.2238 10.2233 11 10.4995 11C10.7756 11 10.9994 11.2238 10.9994 11.5Z" fill="#232323"/>
<path d="M12.4997 20C10.9038 20 9.34787 19.5548 8.00048 18.712C7.80647 18.5908 7.56596 18.558 7.34184 18.6301L4.43209 19.567L5.36897 16.6572C5.43987 16.4365 5.41014 16.1956 5.28702 15.9985C4.44467 14.6511 3.99947 13.0956 3.99947 11.4992C3.99985 6.81318 7.81295 3 12.4997 3C17.1864 3 20.9995 6.81318 20.9995 11.5C20.9995 16.1868 17.1864 20 12.4997 20Z" stroke="#232323" stroke-miterlimit="10" stroke-linejoin="round"/>
</svg>
