<svg width="24" height="24" viewBox="0 0 24 24" fill="none" xmlns="http://www.w3.org/2000/svg">
<path d="M8 10.4977C8 10.7738 7.77614 10.9976 7.5 10.9976C7.22386 10.9976 7 10.7738 7 10.4977C7 10.2217 7.22386 9.9979 7.5 9.9979C7.77614 9.9979 8 10.2217 8 10.4977Z" stroke="#232323" stroke-miterlimit="10" stroke-linejoin="round"/>
<path d="M12.5 7.49865C12.5 7.77471 12.2761 7.9985 12 7.9985C11.7239 7.9985 11.5 7.77471 11.5 7.49865C11.5 7.22259 11.7239 6.9988 12 6.9988C12.2761 6.9988 12.5 7.22259 12.5 7.49865Z" stroke="#232323" stroke-miterlimit="10" stroke-linejoin="round"/>
<path d="M17 10.4977C17 10.7738 16.7761 10.9976 16.5 10.9976C16.2239 10.9976 16 10.7738 16 10.4977C16 10.2217 16.2239 9.9979 16.5 9.9979C16.7761 9.9979 17 10.2217 17 10.4977Z" stroke="#232323" stroke-miterlimit="10" stroke-linejoin="round"/>
</svg>
