<svg width="24" height="24" viewBox="0 0 24 24" fill="none" xmlns="http://www.w3.org/2000/svg">
<path d="M17.5025 17.3438C19.3665 17.3438 20.8775 15.8327 20.8775 13.9688C20.8775 12.1048 19.3665 10.5938 17.5025 10.5938H16.94V8.0625C16.94 8.0625 16.94 6.9375 15.815 6.9375H13.565V6.375C13.565 4.51104 12.054 3 10.19 3C8.32604 3 6.815 4.51104 6.815 6.375V6.9375H4.565C4.565 6.9375 3.44 6.9375 3.44 8.0625V19.3125C3.44 21 5.1275 21 5.1275 21H15.815C16.94 21 16.94 19.875 16.94 19.875V17.3438H17.5025Z" stroke="#232323" stroke-miterlimit="10" stroke-linejoin="round"/>
</svg>
