<svg width="24" height="24" viewBox="0 0 24 24" fill="none" xmlns="http://www.w3.org/2000/svg">
<path d="M13.4857 20H10.5143L10.3021 19.6107C9.80644 18.7013 9.50623 18.112 9.30773 17.7223C9.17755 17.4666 9.06368 17.243 9.01055 17.1648L8.3251 16.7892C8.22718 16.7848 7.96605 16.8032 7.66811 16.8237C7.21304 16.8554 6.52532 16.9033 5.44704 16.9505L4.98552 16.9707L3.5 14.5288L3.74898 14.1596C4.33119 13.2974 4.7187 12.7564 4.97527 12.3981C5.14341 12.1632 5.29067 11.9579 5.33584 11.8755V11.1242C5.29067 11.0417 5.14379 10.8364 4.97565 10.6016C4.71908 10.2436 4.33157 9.70225 3.74936 8.83966L3.50038 8.4705L4.98552 6.02932L5.44704 6.04949C6.52608 6.09667 7.2138 6.14457 7.66887 6.17627C7.96643 6.19716 8.22718 6.21553 8.3251 6.21084L9.01093 5.83519C9.06368 5.75668 9.17755 5.53338 9.30773 5.27802C9.50623 4.88833 9.80645 4.2991 10.3025 3.38933L10.5147 3H13.4861L13.6983 3.38933C14.1939 4.29874 14.4941 4.88797 14.6926 5.27766C14.8228 5.53338 14.9367 5.75704 14.9895 5.83519L15.6753 6.21084C15.7732 6.21516 16.0332 6.1968 16.3304 6.17627C16.7854 6.14457 17.4735 6.09667 18.553 6.04913L19.0145 6.02896L20.5 8.47086L20.2506 8.84002C19.6684 9.70225 19.2809 10.2432 19.0243 10.6016C18.8562 10.8364 18.7089 11.0417 18.6638 11.1245V11.8758C18.7089 11.9583 18.8558 12.1636 19.024 12.3981C19.2805 12.7561 19.668 13.2974 20.2503 14.16L20.4996 14.5291L19.0141 16.971L18.5526 16.9509C17.4728 16.9037 16.7851 16.8554 16.33 16.8237C16.0328 16.8028 15.7728 16.7848 15.6749 16.7892L14.9891 17.1648C14.9363 17.2433 14.8225 17.4666 14.6926 17.7216C14.4941 18.1113 14.1939 18.7005 13.6979 19.6107L13.4857 20Z" stroke="#232323" stroke-miterlimit="10" stroke-linejoin="round"/>
<path d="M9.5 11.5C9.5 12.8785 10.6215 14 12 14C13.3785 14 14.5 12.8785 14.5 11.5C14.5 10.1215 13.3785 9 12 9C10.6215 9 9.5 10.1215 9.5 11.5Z" stroke="#232323" stroke-miterlimit="10" stroke-linejoin="round"/>
</svg>
